<mxfile host="app.diagrams.net" modified="2024-03-26T14:15:03.456Z" agent="Mozilla/5.0 (X11; Linux x86_64) AppleWebKit/537.36 (KHTML, like Gecko) Chrome/123.0.0.0 Safari/537.36" version="24.0.7" etag="GBt1JKs_ARk7xe38HPpt" type="github">
  <diagram name="Page-1" id="ucvLJdjkJObDJXUzLreT">
    <mxGraphModel>
      <root>
        <mxCell id="0" />
        <mxCell id="1" parent="0" />
      </root>
    </mxGraphModel>
  </diagram>
</mxfile>
